<svg id="text" xmlns="http://www.w3.org/2000/svg" xmlns:xlink="http://www.w3.org/1999/xlink" viewBox="0 0 363.04 424.1"><defs><style>.cls-1,.cls-11,.cls-15,.cls-17,.cls-20,.cls-21,.cls-22,.cls-27,.cls-30,.cls-32,.cls-36,.cls-43,.cls-7,.cls-9{fill:none;}.cls-2{font-size:92px;}.cls-2,.cls-3,.cls-4{fill:#fff;}.cls-2,.cls-3{font-family:Helvetica Neue;font-weight:700;}.cls-3{font-size:69px;}.cls-4{font-size:39px;font-family:SignPainter;}.cls-5{clip-path:url(#clip-path);}.cls-6{clip-path:url(#clip-path-2);}.cls-27,.cls-30,.cls-32,.cls-36,.cls-43,.cls-7,.cls-9{stroke:#c82506;}.cls-15,.cls-21,.cls-7{stroke-width:2.2px;}.cls-8{clip-path:url(#clip-path-3);}.cls-17,.cls-9{stroke-width:7.69px;}.cls-10{clip-path:url(#clip-path-5);}.cls-11,.cls-17,.cls-21,.cls-22{stroke:#ffd300;}.cls-11{stroke-width:7.69px;}.cls-12{clip-path:url(#clip-path-7);}.cls-13{fill:#ffd300;}.cls-14{clip-path:url(#clip-path-9);}.cls-15,.cls-20{stroke:#000;}.cls-16{clip-path:url(#clip-path-11);}.cls-18{clip-path:url(#clip-path-13);}.cls-19{clip-path:url(#clip-path-15);}.cls-20,.cls-22,.cls-43{stroke-width:2.2px;}.cls-23{clip-path:url(#clip-path-17);}.cls-24{clip-path:url(#clip-path-19);}.cls-25{clip-path:url(#clip-path-21);}.cls-26{clip-path:url(#clip-path-23);}.cls-27{stroke-width:6.59px;}.cls-28{clip-path:url(#clip-path-25);}.cls-29{clip-path:url(#clip-path-27);}.cls-30{stroke-linecap:round;stroke-linejoin:round;stroke-width:2.13px;}.cls-31{clip-path:url(#clip-path-29);}.cls-32{stroke-width:4.4px;}.cls-33{clip-path:url(#clip-path-31);}.cls-34{clip-path:url(#clip-path-33);}.cls-35{clip-path:url(#clip-path-35);}.cls-36{stroke-width:6.59px;}.cls-37{clip-path:url(#clip-path-37);}.cls-38{clip-path:url(#clip-path-39);}.cls-39{clip-path:url(#clip-path-41);}.cls-40{clip-path:url(#clip-path-43);}.cls-41{clip-path:url(#clip-path-45);}.cls-42{clip-path:url(#clip-path-47);}.cls-44{clip-path:url(#clip-path-49);}</style><clipPath id="clip-path" transform="translate(-62.06 -14.5)"><rect class="cls-1" x="13.07" y="123.85" width="171.83" height="16.53" transform="translate(-41 219.62) rotate(-85.17)"/></clipPath><clipPath id="clip-path-2" transform="translate(-62.06 -14.5)"><rect class="cls-1" x="-314.74" y="-155.27" width="1125.24" height="843.93"/></clipPath><clipPath id="clip-path-3" transform="translate(-62.06 -14.5)"><rect class="cls-1" x="-0.28" y="116.37" width="174.51" height="25.05" transform="translate(-48.79 204.71) rotate(-85.17)"/></clipPath><clipPath id="clip-path-5" transform="translate(-62.06 -14.5)"><rect class="cls-1" x="83.83" y="227.06" width="9.89" height="30.89" transform="translate(-71.04 39.66) rotate(-18.13)"/></clipPath><clipPath id="clip-path-7" transform="translate(-62.06 -14.5)"><rect class="cls-1" x="71.68" y="213.54" width="23.33" height="23.9" transform="translate(-4.09 1.55) rotate(-1.04)"/></clipPath><clipPath id="clip-path-9" transform="translate(-62.06 -14.5)"><rect class="cls-1" x="78.4" y="220.91" width="9.89" height="9.15" transform="matrix(0.94, -0.34, 0.34, 0.94, -70.97, 41.16)"/></clipPath><clipPath id="clip-path-11" transform="translate(-62.06 -14.5)"><rect class="cls-1" x="109.93" y="225.11" width="9.89" height="43.82" transform="translate(-46.3 27.39) rotate(-11.33)"/></clipPath><clipPath id="clip-path-13" transform="translate(-62.06 -14.5)"><rect class="cls-1" x="97.06" y="211.08" width="23.33" height="23.9" transform="translate(-41.71 25.71) rotate(-11.33)"/></clipPath><clipPath id="clip-path-15" transform="translate(-62.06 -14.5)"><rect class="cls-1" x="104.15" y="218.09" width="9.15" height="9.89" transform="translate(-117.11 325.8) rotate(-88.48)"/></clipPath><clipPath id="clip-path-17" transform="translate(-62.06 -14.5)"><rect class="cls-1" x="378.66" y="212.44" width="4.4" height="39.75" transform="translate(87.8 568.68) rotate(-80.32)"/></clipPath><clipPath id="clip-path-19" transform="translate(-62.06 -14.5)"><rect class="cls-1" x="386.43" y="197.41" width="4.4" height="43.82" transform="translate(94.09 554.55) rotate(-78.13)"/></clipPath><clipPath id="clip-path-21" transform="translate(-62.06 -14.5)"><rect class="cls-1" x="392.43" y="190.77" width="4.4" height="31.64" transform="translate(114.39 552.83) rotate(-78.65)"/></clipPath><clipPath id="clip-path-23" transform="translate(-62.06 -14.5)"><rect class="cls-1" x="102.44" y="36.87" width="8.79" height="129.58" transform="translate(-29.91 46.44) rotate(-21.59)"/></clipPath><clipPath id="clip-path-25" transform="translate(-62.06 -14.5)"><rect class="cls-1" x="118.65" y="40.79" width="8.79" height="110.13" transform="translate(-28.25 57.94) rotate(-23.85)"/></clipPath><clipPath id="clip-path-27" transform="translate(-62.06 -14.5)"><rect class="cls-1" x="88.48" y="30.32" width="7.69" height="28.16" transform="translate(26.62 123) rotate(-75.79)"/></clipPath><clipPath id="clip-path-29" transform="translate(-62.06 -14.5)"><rect class="cls-1" x="100.74" y="59.48" width="6.59" height="21.13" transform="translate(10.59 153.7) rotate(-75.79)"/></clipPath><clipPath id="clip-path-31" transform="translate(-62.06 -14.5)"><rect class="cls-1" x="110.8" y="83.44" width="6.59" height="22.93" transform="translate(-5.92 182.21) rotate(-75.79)"/></clipPath><clipPath id="clip-path-33" transform="translate(-62.06 -14.5)"><rect class="cls-1" x="122.79" y="110.87" width="6.59" height="23.45" transform="translate(-23.71 214.72) rotate(-75.79)"/></clipPath><clipPath id="clip-path-35" transform="translate(-62.06 -14.5)"><rect class="cls-1" x="218.33" y="12.77" width="8.79" height="109.83" transform="translate(-10.05 68.83) rotate(-17.19)"/></clipPath><clipPath id="clip-path-37" transform="translate(-62.06 -14.5)"><rect class="cls-1" x="237.57" y="17.57" width="8.79" height="107.73" transform="translate(-9.94 85.31) rotate(-19.6)"/></clipPath><clipPath id="clip-path-39" transform="translate(-62.06 -14.5)"><rect class="cls-1" x="211.68" y="4.6" width="7.69" height="28.65" transform="translate(128.47 217) rotate(-71.29)"/></clipPath><clipPath id="clip-path-41" transform="translate(-62.06 -14.5)"><rect class="cls-1" x="221" y="33.56" width="6.59" height="23.09" transform="translate(109.63 243.08) rotate(-71.29)"/></clipPath><clipPath id="clip-path-43" transform="translate(-62.06 -14.5)"><rect class="cls-1" x="229.48" y="58.78" width="6.59" height="24.05" transform="translate(91.04 268.57) rotate(-71.29)"/></clipPath><clipPath id="clip-path-45" transform="translate(-62.06 -14.5)"><rect class="cls-1" x="238.6" y="86.15" width="6.59" height="25.96" transform="translate(70.41 296.45) rotate(-71.29)"/></clipPath><clipPath id="clip-path-47" transform="translate(-62.06 -14.5)"><rect class="cls-1" x="269.74" y="2.22" width="14.6" height="170.03" transform="translate(10.89 203.52) rotate(-41.08)"/></clipPath><clipPath id="clip-path-49" transform="translate(-62.06 -14.5)"><rect class="cls-1" x="257.59" y="-10.07" width="21.8" height="186.3" transform="translate(11.51 196.87) rotate(-41.08)"/></clipPath></defs><title>NCCBlogo2017</title><text class="cls-2" transform="translate(75.94 247.5)">NCCB</text><text class="cls-3" transform="translate(110.94 352.5)">2017</text><text class="cls-4" transform="translate(106.94 282.5)">Sympos<tspan x="93.95" y="0">i</tspan><tspan x="101.63" y="0">u</tspan><tspan x="117.04" y="0">m</tspan></text><text class="cls-4" transform="translate(132.94 165.5)">An<tspan x="32.21" y="0">n</tspan><tspan x="47.11" y="0">ual</tspan></text><g class="cls-5"><g class="cls-6"><path class="cls-7" d="M87.69,216A324.86,324.86,0,0,0,105,133a324.88,324.88,0,0,0-5-85.62" transform="translate(-62.06 -14.5)"/></g></g><g class="cls-8"><g class="cls-6"><path class="cls-7" d="M87.85,215.33a414.73,414.73,0,0,0,7.08-87.82,414.69,414.69,0,0,0-11.07-85" transform="translate(-62.06 -14.5)"/></g></g><path class="cls-9" d="M79.74,266.7c5.4-64.79,47.83-119.64,108.21-140.65,49.61-17.26,104.71-8.62,147.93,23.26" transform="translate(-62.06 -14.5)"/><g class="cls-10"><g class="cls-6"><line class="cls-11" x1="31.18" y1="241.64" x2="22.25" y2="214.37"/></g></g><g class="cls-12"><g class="cls-6"><path class="cls-13" d="M90.67,217.68A11.06,11.06,0,0,1,91,233a10.37,10.37,0,0,1-14.94.27,11.06,11.06,0,0,1-.28-15.34A10.37,10.37,0,0,1,90.67,217.68Z" transform="translate(-62.06 -14.5)"/></g></g><g class="cls-14"><g class="cls-6"><path d="M84.61,223.25a2.16,2.16,0,0,1,1.13,3.16,3.06,3.06,0,0,1-3.66,1.31,2.16,2.16,0,0,1-1.13-3.16A3.06,3.06,0,0,1,84.61,223.25Z" transform="translate(-62.06 -14.5)"/><path class="cls-15" d="M84.61,223.25a2.16,2.16,0,0,1,1.13,3.16,3.06,3.06,0,0,1-3.66,1.31,2.16,2.16,0,0,1-1.13-3.16A3.06,3.06,0,0,1,84.61,223.25Z" transform="translate(-62.06 -14.5)"/></g></g><g class="cls-16"><g class="cls-6"><line class="cls-17" x1="56.9" y1="252.93" x2="48.72" y2="212.12"/></g></g><g class="cls-18"><g class="cls-6"><path class="cls-13" d="M114.54,214a11.06,11.06,0,0,1,3,15A10.37,10.37,0,0,1,102.9,232a11.06,11.06,0,0,1-3-15A10.37,10.37,0,0,1,114.54,214Z" transform="translate(-62.06 -14.5)"/></g></g><g class="cls-19"><g class="cls-6"><path d="M110.71,221.4a2.16,2.16,0,0,1-.09,3.36,3.06,3.06,0,0,1-3.88-.1,2.16,2.16,0,0,1,.09-3.36A3.06,3.06,0,0,1,110.71,221.4Z" transform="translate(-62.06 -14.5)"/><path class="cls-20" d="M110.71,221.4a2.16,2.16,0,0,1-.09,3.36,3.06,3.06,0,0,1-3.88-.1,2.16,2.16,0,0,1,.09-3.36A3.06,3.06,0,0,1,110.71,221.4Z" transform="translate(-62.06 -14.5)"/></g></g><line class="cls-21" x1="189.39" y1="399.33" x2="205.92" y2="415.86"/><line class="cls-21" x1="199.54" y1="389.18" x2="219.36" y2="409"/><line class="cls-22" x1="234.48" y1="378.62" x2="250.11" y2="412.22"/><line class="cls-21" x1="244.36" y1="372.45" x2="265.39" y2="417.55"/><line class="cls-21" x1="260.74" y1="380.91" x2="274.94" y2="411.74"/><line class="cls-22" x1="286" y1="380.3" x2="316.95" y2="365.71"/><line class="cls-22" x1="281.34" y1="365.9" x2="312.29" y2="351.31"/><line class="cls-22" x1="272.28" y1="354.09" x2="303.23" y2="339.5"/><line class="cls-21" x1="317.3" y1="292.78" x2="349.44" y2="311.68"/><line class="cls-22" x1="296.27" y1="297.32" x2="345.47" y2="328.14"/><line class="cls-21" x1="287.3" y1="307.93" x2="332.88" y2="337.83"/><line class="cls-21" x1="308.55" y1="270.2" x2="354.38" y2="251.08"/><line class="cls-22" x1="322.65" y1="280.02" x2="358.39" y2="266.07"/><line class="cls-21" x1="300.83" y1="260.09" x2="344.48" y2="240.69"/><g class="cls-23"><g class="cls-6"><line class="cls-22" x1="300.28" y1="214.66" x2="337.31" y2="220.98"/></g></g><g class="cls-24"><g class="cls-6"><line class="cls-22" x1="306.2" y1="200.55" x2="346.94" y2="209.1"/></g></g><g class="cls-25"><g class="cls-6"><line class="cls-22" x1="318.13" y1="189.2" x2="346.99" y2="194.99"/></g></g><line class="cls-21" x1="298.09" y1="177.97" x2="329.15" y2="163.9"/><line class="cls-21" x1="285.02" y1="169.96" x2="326.79" y2="152.02"/><line class="cls-21" x1="276.56" y1="161.27" x2="307.61" y2="147.2"/><g class="cls-26"><g class="cls-6"><line class="cls-27" x1="68.21" y1="146.39" x2="21.34" y2="27.94"/></g></g><g class="cls-28"><g class="cls-6"><line class="cls-27" x1="82.8" y1="130.72" x2="39.16" y2="32"/></g></g><g class="cls-29"><g class="cls-6"><line class="cls-30" x1="20.35" y1="27.39" x2="40.19" y2="32.42"/></g></g><g class="cls-31"><g class="cls-6"><line class="cls-32" x1="32.79" y1="53.22" x2="51.15" y2="57.87"/></g></g><g class="cls-33"><g class="cls-6"><line class="cls-32" x1="41.99" y1="77.86" x2="62.08" y2="82.95"/></g></g><g class="cls-34"><g class="cls-6"><line class="cls-32" x1="53.73" y1="105.49" x2="74.32" y2="110.71"/></g></g><g class="cls-35"><g class="cls-6"><line class="cls-36" x1="176.56" y1="104.6" x2="144.76" y2="1.77"/></g></g><g class="cls-37"><g class="cls-6"><line class="cls-27" x1="197.6" y1="106.65" x2="162.2" y2="7.23"/></g></g><g class="cls-38"><g class="cls-6"><line class="cls-30" x1="143.54" y1="1.06" x2="163.4" y2="7.79"/></g></g><g class="cls-39"><g class="cls-6"><line class="cls-32" x1="152.34" y1="27.25" x2="172.13" y2="33.95"/></g></g><g class="cls-40"><g class="cls-6"><line class="cls-32" x1="160.36" y1="52.8" x2="181.06" y2="59.81"/></g></g><g class="cls-41"><g class="cls-6"><line class="cls-32" x1="168.58" y1="80.82" x2="191.09" y2="88.44"/></g></g><path class="cls-7" d="M101.41,46.54a524.51,524.51,0,0,0,43.45,45.68c11.7,10.9,25.92,22,42,17.79,15.85-4.11,23.16-19.1,28-33.07a174.68,174.68,0,0,0,9.52-55.7" transform="translate(-62.06 -14.5)"/><path class="cls-7" d="M83.83,43C98,58.82,112.39,73.37,127.18,87c11.74,10.83,25.92,21.92,42,17.79,15.87-4.08,23.2-19.07,28-33.07a169.41,169.41,0,0,0,9.08-55.59" transform="translate(-62.06 -14.5)"/><g class="cls-42"><g class="cls-6"><path class="cls-43" d="M335.88,146.92a361.58,361.58,0,0,1-63-56.72A361.56,361.56,0,0,1,225.3,21.34" transform="translate(-62.06 -14.5)"/></g></g><g class="cls-44"><g class="cls-6"><path class="cls-43" d="M335.35,146.47a381.59,381.59,0,0,1-61.82-47.23,382.19,382.19,0,0,1-67.16-83.86" transform="translate(-62.06 -14.5)"/></g></g><path class="cls-17" d="M336,149.07a19.73,19.73,0,0,1,5.28,9.91c1.71,8.36-2.16,17.8,2.66,25.46,5.49,8.73,17.38,8.11,28.07,7.14,15.55-1.42,32.48.92,38.55,14.51,6.81,15.25-4.31,29.21-18.93,38.17C378.49,252.31,362,258,363,273.95c0.87,14,16.83,19.13,29.24,25.8,14.46,7.76,24.25,23,18.22,37.14-5.12,12-19.3,16.22-32.66,14C363.27,348.42,347,341.61,338,353c-8.07,10.29-.15,23.64,5.42,35.87,6.45,14.16,6.62,31.21-5.56,39.15-12.34,8-28,.76-38.56-11-9.37-10.43-19.5-23.06-32-18.25-7.63,2.94-10.61,11.25-15.19,17.66a37.16,37.16,0,0,1-17.44,13.29" transform="translate(-62.06 -14.5)"/><path class="cls-9" d="M240,427.33a34.12,34.12,0,0,0,47.43-12.92c5.22-9.54,6.67-22.54,17.26-25.8,8.65-2.67,16.53,3.8,24.14,8.95,13.23,9,30.36,12.36,41.15,1.8,11.94-11.67,7.29-28.64-2.41-42.54-8.81-12.61-21.8-24.28-14.67-38.55,6.27-12.54,23-11,37-12.24,16.35-1.45,31.35-11.65,31.34-27,0-13-11.39-22.48-24.54-25.69-14.28-3.48-31.85-3.63-35.7-17.6-3.48-12.6,8.84-22,19.08-30.86,12.32-10.66,19.62-26.92,10.26-38.19-10-12-28.22-4.48-42-9.83a35.11,35.11,0,0,1-5.32-2.7,71.76,71.76,0,0,1-7.6-5.26" transform="translate(-62.06 -14.5)"/><path class="cls-13" d="M205.5,419.88c12.28,3.42,25.11,3.46,37.8,3.83,0.71,0,1.42,0,2.13,0a13.29,13.29,0,0,0,6-1.77,19.55,19.55,0,0,1-6.48,7.63,29.61,29.61,0,0,1-4.75,2.6c-21.57,9.76-46,7.11-68.8.56-21.77-6.27-44.88-16.26-63.75-32.3C74.13,371.94,54.2,329.17,65,287c2.88-11.22,8.07-22.23,18-28.15,15.28-9.13,31-5.58,39.45,5.94,7.38,10.1,6.53,24,6.83,38a144.06,144.06,0,0,0,17.17,64.27C159.4,391.44,179,412.5,205.5,419.88Z" transform="translate(-62.06 -14.5)"/><path class="cls-20" d="M88.32,262A13.12,13.12,0,0,0,98,269.3a13.27,13.27,0,0,0,12.79-5" transform="translate(-62.06 -14.5)"/></svg>